<svg width="22" height="20" viewBox="0 0 22 20" fill="none" xmlns="http://www.w3.org/2000/svg">
<path d="M15.4945 7.75319C14.6673 7.75319 13.9945 8.42594 13.9945 9.25319C13.9945 10.0804 14.6673 10.7532 15.4945 10.7532C16.3218 10.7532 16.9945 10.0804 16.9945 9.25319C16.9945 8.42594 16.3218 7.75319 15.4945 7.75319ZM15.4945 10.3782C14.8743 10.3782 14.3695 9.87344 14.3695 9.25319C14.3695 8.63294 14.8743 8.12819 15.4945 8.12819C16.1148 8.12819 16.6195 8.63294 16.6195 9.25319C16.6195 9.87344 16.1148 10.3782 15.4945 10.3782ZM12.9051 3.38856L10.5107 0.695312C10.1822 0.771062 9.85525 0.853563 9.53125 0.949187L11.8818 3.59369L12.9051 3.38856Z" fill="#FC692A"/>
<path d="M15.5 9.625C15.7071 9.625 15.875 9.45711 15.875 9.25C15.875 9.04289 15.7071 8.875 15.5 8.875C15.2929 8.875 15.125 9.04289 15.125 9.25C15.125 9.45711 15.2929 9.625 15.5 9.625Z" fill="#FC692A"/>
<path d="M16.685 1.23813C16.0226 0.86838 15.324 0.567315 14.6004 0.339625L14.315 0.25C13.9955 0.251125 13.6775 0.2635 13.3606 0.28225L15.4876 2.67512L16.685 1.23813ZM14.7823 3.01075L12.4291 0.363625C12.0714 0.404125 11.7159 0.455875 11.3622 0.518875L13.7589 3.21512L14.7823 3.01075ZM11.0319 3.76037L8.75262 1.1965C8.50026 1.2841 8.24994 1.3775 8.00187 1.47662L7.87737 1.5265L10.0107 3.96475L11.0319 3.76037ZM5.5535 13.75C5.87975 13.75 6.17 13.6814 6.42875 13.552L11.7687 10.882L12.089 7.68212L4.50537 6.30325L2.79688 11.7704L4.2275 13.201C4.40131 13.3755 4.60798 13.5139 4.83557 13.6082C5.06317 13.7024 5.30717 13.7506 5.5535 13.75ZM10.5118 8.39012L8.63675 10.2651L8.1065 9.73487L9.9815 7.85987L10.5118 8.39012ZM8.4815 7.85987L9.01175 8.39012L7.13675 10.2651L6.6065 9.73487L8.4815 7.85987Z" fill="#FC692A"/>
<path d="M17.337 1.625L15.786 3.4865C15.7311 3.55212 15.6554 3.59709 15.5715 3.614L9.9465 4.739C9.88175 4.75195 9.81472 4.74761 9.75218 4.72641C9.68964 4.70521 9.63378 4.66791 9.59025 4.61825L7.116 1.79075L0.140625 3.5345C0.211634 4.07649 0.477135 4.57422 0.88772 4.93506C1.2983 5.29591 1.82601 5.4953 2.37263 5.49612H4.24763C4.27013 5.49612 4.29262 5.498 4.31475 5.50213L12.5648 7.00213C12.6575 7.019 12.7404 7.07015 12.7971 7.1454C12.8538 7.22065 12.8801 7.31449 12.8708 7.40825L12.4958 11.1582C12.4894 11.2212 12.4673 11.2816 12.4314 11.3338C12.3954 11.3859 12.3469 11.4281 12.2903 11.4564L6.76538 14.219C6.40081 14.4009 5.99904 14.4957 5.59163 14.4961C4.85363 14.4961 4.19438 14.2231 3.69825 13.7274L2.475 12.5041L1.62263 14.2096V18.6211C1.62263 19.2414 2.12738 19.7461 2.74763 19.7461H2.87925C3.00038 19.7461 3.12037 19.7266 3.2355 19.6884L18.5588 14.5805L19.2589 11.78C19.2728 11.7239 19.2995 11.6718 19.337 11.6278C19.3745 11.5838 19.4217 11.5491 19.4749 11.5265L21.8726 10.499V7.43262C21.054 5.01987 19.4348 2.98287 17.337 1.625ZM15.4976 11.4961C14.2568 11.4961 13.2476 10.487 13.2476 9.24613C13.2476 8.00525 14.2568 6.99613 15.4976 6.99613C16.7385 6.99613 17.7476 8.00525 17.7476 9.24613C17.7476 10.487 16.7385 11.4961 15.4976 11.4961Z" fill="#FC692A"/>
</svg>
