<svg version="1.2" xmlns="http://www.w3.org/2000/svg" viewBox="0 0 40 32" width="40" height="32"><defs><clipPath clipPathUnits="userSpaceOnUse" id="cp1"><path d="m-271-649h1440v1559h-1440z"/></clipPath><clipPath clipPathUnits="userSpaceOnUse" id="cp2"><path d="m4 0h32c2.21 0 4 1.79 4 4v24c0 2.21-1.79 4-4 4h-32c-2.21 0-4-1.79-4-4v-24c0-2.21 1.79-4 4-4z"/></clipPath></defs><style>.a{fill:#016fd0}</style><g clip-path="url(#cp1)"><g clip-path="url(#cp2)"><path class="a" d="m-1 28.6c0 1.9 1.5 3.4 3.4 3.4h34c1.9 0 3.5-1.5 3.5-3.4v-0.1h-4.4l-2.3-2.5-2.2 2.5h-14.5v-11.7h-4.7l5.8-13.2h5.6l2 4.5v-4.5h6.9l1.2 3.4 1.2-3.4h5.4v-0.2c0-1.9-1.6-3.4-3.5-3.4h-34c-1.9 0-3.4 1.5-3.4 3.4zm31.2-1.5l3-3.3 3 3.3h3.7l-4.9-5.2 4.9-5.1h-3.6l-3 3.3-3-3.3h-3.6l4.8 5.2-4.8 5.1v-2.4h-5.9v-1.6h5.8v-2.3h-5.8v-1.6h5.9v-2.4h-8.6v10.3zm6.8-5.2l2.8 3v-5.9zm-2.6-6.6l2.6-7.2v7.2h2.8v-10.2h-4.3l-2.3 6.3-2.3-6.3h-4.3v10.2l-4.5-10.2h-3.6l-4.4 10.2h3l0.9-2.1h4.6l0.9 2.1h5.8v-7.2l2.7 7.2zm-15.5-4.4l1.3-3.3 1.4 3.3z"/></g></g></svg>