<svg version="1.2" xmlns="http://www.w3.org/2000/svg" viewBox="0 0 20 20" width="20" height="20"><defs><clipPath clipPathUnits="userSpaceOnUse" id="cp1"><path d="m-41-223h1440v1369h-1440z"/></clipPath><clipPath clipPathUnits="userSpaceOnUse" id="cp2"><path d="m-41-135h300v1281h-300z"/></clipPath><clipPath clipPathUnits="userSpaceOnUse" id="cp3"><path d="m-2-2h24v24h-24z"/></clipPath></defs><style>.a{fill:#444}</style><g clip-path="url(#cp1)"><g clip-path="url(#cp2)"><g clip-path="url(#cp3)"><path fill-rule="evenodd" class="a" d="m4.5 0.1c0.4 0 0.7 0.3 0.7 0.7v0.3c1.1-0.1 2.3-0.1 3.9-0.1h1.8c1.6 0 2.8 0 3.8 0.1v-0.3c0-0.4 0.4-0.7 0.8-0.7 0.4 0 0.7 0.3 0.7 0.7v0.6c0.8 0.2 1.4 0.5 1.9 1.1 0.7 0.8 1.1 1.8 1.2 3 0.2 1.2 0.2 2.7 0.2 4.7v0.5c0 2 0 3.5-0.2 4.7-0.1 1.3-0.5 2.3-1.2 3-0.7 0.8-1.7 1.2-2.8 1.4-1.1 0.1-2.6 0.1-4.4 0.1h-1.8c-1.8 0-3.3 0-4.4-0.1-1.1-0.2-2.1-0.6-2.8-1.4-0.7-0.7-1.1-1.7-1.2-3-0.2-1.2-0.2-2.7-0.2-4.7v-0.5c0-2 0-3.5 0.2-4.7 0.1-1.2 0.5-2.2 1.2-3 0.5-0.6 1.1-0.9 1.8-1.1v-0.6c0-0.4 0.4-0.7 0.8-0.7zm-0.7 2.8q-0.5 0.2-0.8 0.6c-0.4 0.4-0.7 1.1-0.8 2.1h15.6c-0.1-1-0.4-1.7-0.8-2.1q-0.3-0.3-0.8-0.6c-0.1 0.3-0.4 0.5-0.7 0.5-0.4 0-0.8-0.3-0.8-0.7v-0.1c-0.9-0.1-2.1-0.1-3.8-0.1h-1.8c-1.7 0-2.9 0-3.9 0.1v0.1c0 0.4-0.3 0.7-0.7 0.7-0.3 0-0.6-0.2-0.7-0.5zm-1.7 4.2q-0.1 1.3-0.1 3.1v0.5c0 2 0 3.5 0.2 4.5 0.1 1.1 0.4 1.8 0.8 2.2 0.4 0.5 1 0.7 1.9 0.9 1 0.1 2.4 0.1 4.2 0.1h1.8c1.8 0 3.2 0 4.2-0.1 0.9-0.2 1.5-0.4 1.9-0.9 0.4-0.4 0.7-1.1 0.8-2.2 0.2-1 0.2-2.5 0.2-4.5v-0.5q0-1.8-0.1-3.1zm3.5 3.8c0-0.4 0.4-0.7 0.8-0.7 0.4 0 0.7 0.3 0.7 0.7 0 0.4-0.3 0.8-0.7 0.8-0.4 0-0.8-0.4-0.8-0.8zm3.7 0c0-0.4 0.3-0.7 0.7-0.7 0.5 0 0.8 0.3 0.8 0.7 0 0.4-0.3 0.8-0.8 0.8-0.4 0-0.7-0.4-0.7-0.8zm3.7 0c0-0.4 0.3-0.7 0.7-0.7 0.4 0 0.8 0.3 0.8 0.7 0 0.4-0.4 0.8-0.8 0.8-0.4 0-0.7-0.4-0.7-0.8zm-7.4 3.7c0-0.4 0.4-0.8 0.8-0.8 0.4 0 0.7 0.4 0.7 0.8 0 0.4-0.3 0.7-0.7 0.7-0.4 0-0.8-0.3-0.8-0.7zm3.7 0c0-0.4 0.3-0.8 0.7-0.8 0.5 0 0.8 0.4 0.8 0.8 0 0.4-0.3 0.7-0.8 0.7-0.4 0-0.7-0.3-0.7-0.7z"/></g></g></g></svg>