<svg version="1.2" xmlns="http://www.w3.org/2000/svg" viewBox="0 0 13 13" width="13" height="13"><defs><clipPath clipPathUnits="userSpaceOnUse" id="cp1"><path d="m-1390-899h1440v1369h-1440z"/></clipPath></defs><style>.a{fill:#444}</style><g clip-path="url(#cp1)"><path fill-rule="evenodd" class="a" d="m11.5 4.8l-5.6 5.6c-0.9 0.8-1.3 1.3-2 1.6-0.3 0.2-0.8 0.4-1.3 0.5-0.6 0.1-1.2 0.3-1.8 0.4-0.2 0.1-0.4 0-0.6-0.1-0.1-0.2-0.2-0.4-0.1-0.6 0.1-0.6 0.2-1.2 0.4-1.8 0.1-0.5 0.3-1 0.5-1.4 0.3-0.6 0.8-1.1 1.6-1.9l5.6-5.6c0.9-0.8 2.4-0.8 3.3 0 0.8 0.9 0.8 2.4 0 3.3zm-3.1-1.6l1.4 1.4 0.8-0.7c0.4-0.4 0.4-1.1 0-1.5-0.4-0.4-1.1-0.4-1.5 0zm-4.8 4.8c-0.9 0.9-1.2 1.3-1.5 1.7q-0.1 0.3-0.4 1.1-0.1 0.4-0.2 0.8 0.4-0.1 0.8-0.2 0.8-0.3 1.1-0.4c0.4-0.3 0.8-0.6 1.7-1.5l3.9-3.9-1.5-1.5z"/></g></svg>