<svg version="1.2" xmlns="http://www.w3.org/2000/svg" viewBox="0 0 20 20" width="20" height="20"><defs><clipPath clipPathUnits="userSpaceOnUse" id="cp1"><path d="m-38-280h1440v1369h-1440z"/></clipPath><clipPath clipPathUnits="userSpaceOnUse" id="cp2"><path d="m-38-192h300v1281h-300z"/></clipPath></defs><style>.a{fill:#444}</style><g clip-path="url(#cp1)"><g clip-path="url(#cp2)"><path class="a" d="m9.3 9.1v10l-0.6 0.3-8.7-4.3v-10.8l8.7-4.3 8.6 4.3v7.7h-1.3v-6.2zm-0.7-7.6l-2.5 1.2 6.5 3.3 2.5-1.3zm-0.6 16.1v-8.5l-6.7-3.3v8.5zm-5.8-12.9l6.5 3.3 2.5-1.3-6.5-3.2zm11.2 12.6v-1.3h6.6v1.3zm0-4h6.7v1.3h-6.7zm-2.6 6.7v-1.3h1.3v1.3zm0-5.3v-1.4h1.3v1.4zm0 2.6v-1.3h1.4v1.3zm2.6 2.7v-1.3h6.7v1.3z"/></g></g></svg>