<svg version="1.2" xmlns="http://www.w3.org/2000/svg" viewBox="0 0 22 18" width="22" height="18"><defs><clipPath clipPathUnits="userSpaceOnUse" id="cp1"><path d="m-40-440h1440v1369h-1440z"/></clipPath><clipPath clipPathUnits="userSpaceOnUse" id="cp2"><path d="m-40-352h300v1281h-300z"/></clipPath><clipPath clipPathUnits="userSpaceOnUse" id="cp3"><path d="m-1-3h24v24h-24z"/></clipPath></defs><style>.a{fill:#444}</style><g clip-path="url(#cp1)"><g clip-path="url(#cp2)"><g clip-path="url(#cp3)"><path class="a" d="m12.9 0.3c1.6 0 2.8 0 3.7 0.1 1 0.2 1.8 0.4 2.5 0.9q0.7 0.5 1.2 1.2c0.6 0.9 0.7 2 0.8 3.5 0 0.7-0.5 1.1-1 1.1-1 0-1.8 0.8-1.8 1.9 0 1.1 0.8 1.9 1.8 1.9 0.5 0 1 0.5 1 1.1-0.1 1.5-0.2 2.6-0.8 3.5q-0.5 0.7-1.2 1.2c-0.7 0.5-1.5 0.8-2.5 0.9-0.9 0.1-2.1 0.1-3.7 0.1h-3.8c-1.6 0-2.8 0-3.7-0.1-1-0.1-1.8-0.4-2.5-0.9q-0.7-0.5-1.2-1.2c-0.6-0.9-0.7-2-0.8-3.5 0-0.6 0.5-1.1 1-1.1h0.2c0.9-0.1 1.6-0.9 1.6-1.9 0-1.1-0.8-1.9-1.8-1.9-0.5 0-1-0.4-1-1.1 0.1-1.5 0.2-2.6 0.8-3.5q0.5-0.7 1.2-1.2c0.7-0.5 1.5-0.7 2.5-0.9 0.9-0.1 2.1-0.1 3.7-0.1zm-3.8 1.2c-1.6 0-2.7 0-3.6 0.1-0.9 0.1-1.4 0.3-1.9 0.6q-0.5 0.4-0.9 1c-0.4 0.6-0.5 1.4-0.6 2.7 1.6 0.1 2.8 1.5 2.8 3.1 0 1.6-1.2 3-2.8 3.1 0.1 1.4 0.2 2.1 0.6 2.7q0.4 0.6 0.9 1c0.5 0.3 1 0.5 1.9 0.6 0.9 0.1 2 0.1 3.6 0.1h3.8c1.6 0 2.7 0 3.6-0.1 0.8-0.1 1.4-0.3 1.8-0.6q0.6-0.4 0.9-1c0.4-0.6 0.6-1.3 0.7-2.7-1.6-0.1-2.8-1.5-2.8-3.1 0-1.6 1.2-3 2.8-3.1-0.1-1.3-0.3-2.1-0.7-2.7q-0.3-0.6-0.9-1c-0.4-0.3-1-0.5-1.8-0.6-0.9-0.1-2-0.1-3.6-0.1zm3.9 4.7c0.2-0.2 0.6-0.2 0.8 0 0.2 0.2 0.2 0.6 0 0.9l-4.7 4.7c-0.3 0.2-0.7 0.2-0.9 0-0.2-0.2-0.2-0.6 0-0.8zm0.5 4.6c0.3 0 0.5 0.2 0.5 0.5 0 0.3-0.2 0.6-0.5 0.6h-0.1c-0.3 0-0.6-0.2-0.6-0.6 0-0.3 0.3-0.6 0.6-0.6zm-4.7-4.7c0.3 0 0.5 0.3 0.5 0.6 0 0.3-0.2 0.5-0.5 0.6h-0.1c-0.4 0-0.6-0.3-0.6-0.6 0-0.4 0.2-0.6 0.6-0.6z"/></g></g></g></svg>