<svg version="1.2" xmlns="http://www.w3.org/2000/svg" viewBox="0 0 20 20" width="20" height="20"><defs><clipPath clipPathUnits="userSpaceOnUse" id="cp1"><path d="m-41-115h1440v1369h-1440z"/></clipPath><clipPath clipPathUnits="userSpaceOnUse" id="cp2"><path d="m-41-27h300v1281h-300z"/></clipPath></defs><style>.a{fill:#444}</style><g clip-path="url(#cp1)"><g clip-path="url(#cp2)"><path class="a" d="m15.6 20q-1.9 0-3.2-1.3-1.3-1.3-1.3-3.1 0-1.9 1.3-3.1 1.3-1.3 3.2-1.3 1.8 0 3.1 1.3 1.3 1.2 1.3 3.1 0 1.8-1.3 3.1-1.3 1.3-3.1 1.3zm-15.6-1.5v-16.7q0-0.8 0.5-1.3 0.5-0.5 1.3-0.5h14.2q0.7 0 1.3 0.5 0.5 0.5 0.5 1.3v6.5q-0.3-0.1-0.6-0.1-0.2-0.1-0.5-0.1v-6.3q0-0.3-0.2-0.5-0.3-0.2-0.5-0.2h-14.2q-0.3 0-0.5 0.2-0.2 0.2-0.2 0.5v14.8h7.1q0 0.5 0.2 0.9 0.1 0.4 0.3 0.8 0 0-0.1 0 0 0 0 0l-0.9-0.7q-0.2 0-0.3 0-0.1 0-0.3 0l-0.9 0.7q-0.2 0.1-0.3 0.1-0.1 0-0.3-0.1l-0.9-0.7q-0.2 0-0.3 0-0.1 0-0.3 0l-0.9 0.7q-0.2 0.1-0.3 0.1-0.1 0-0.3-0.1l-0.9-0.7q-0.2 0-0.3 0-0.1 0-0.3 0l-0.8 0.7q-0.1 0.1-0.3 0.2zm14.9-2.4l-0.8-0.7q-0.1-0.2-0.3-0.2-0.2 0-0.4 0.2-0.1 0.1-0.1 0.3 0 0.2 0.1 0.4l1 0.9q0.2 0.2 0.5 0.2 0.2 0 0.4-0.2l2.4-2.3q0.1-0.1 0.1-0.3 0-0.2-0.1-0.4-0.2-0.1-0.4-0.1-0.2 0-0.3 0.1zm-11.3-10.8h10.6q0.2 0 0.3-0.2 0.2-0.2 0.2-0.4 0-0.2-0.6-0.4-0.5-0.1-0.7-0.1h-9.8q-0.2 0-0.4 0.1-0.1 0.2-0.1 0.4 0 0.2 0.1 0.4 0.2 0.2 0.4 0.2zm0 8.3h4.7q0.1-0.3 0.2-0.6 0.1-0.3 0.2-0.5h-5.1q-0.2 0-0.4 0.1-0.1 0.2-0.1 0.4 0 0.3 0.1 0.4 0.2 0.2 0.4 0.2zm0-4.2h7.6q0.5-0.4 1.2-0.7 0.6-0.3 1.3-0.4h-10.1q-0.2 0-0.4 0.2-0.1 0.1-0.1 0.4 0 0.2 0.1 0.4 0.2 0.1 0.4 0.1z"/></g></g></svg>