<svg version="1.2" xmlns="http://www.w3.org/2000/svg" viewBox="0 0 20 12" width="20" height="12"><defs><clipPath clipPathUnits="userSpaceOnUse" id="cp1"><path d="m-41-334h1440v842h-1440z"/></clipPath><clipPath clipPathUnits="userSpaceOnUse" id="cp2"><path d="m-41-246h300v754h-300z"/></clipPath></defs><style>.a{fill:none;stroke:#444;stroke-linecap:round;stroke-linejoin:round;stroke-width:1.2}</style><g clip-path="url(#cp1)"><g clip-path="url(#cp2)"><path class="a" d="m17.5 3.2c1.2 1.4 1.6 2.8 1.7 3.5q-1-0.4-2.1-0.4c-2.2 0-4.2 1.5-4.7 3.5-0.1 0.4-0.2 0.7-0.3 0.8-0.1 0.1-0.3 0.1-0.7 0.1h-2.7c-0.4 0-0.6 0-0.7-0.1-0.1-0.1-0.2-0.4-0.3-0.8-0.4-2-2.3-3.7-4.2-3.6-0.2 0.1-0.3 0.1-0.4 0 0 0-0.1 0-0.2-0.1q-0.6-0.3-1.2-0.6c-0.5-0.4-0.8-0.9-0.9-1.5 0-0.4 0.2-0.7 0.6-0.6l5.9 1.3c0.5 0.1 0.7 0.2 0.9 0.2 0.2-0.1 0.4-0.2 0.9-0.6 1.1-0.8 3-1.5 4.9-0.8 0.5 0.1 0.7 0.2 0.9 0.2 0.1 0 0.3 0 0.8-0.1 0.7-0.2 1.3-0.4 1.8-0.4zm0 0c-0.7-0.9-1.7-1.8-3.2-2.6"/></g></g></svg>