<svg version="1.2" xmlns="http://www.w3.org/2000/svg" viewBox="0 0 20 20" width="20" height="20"><defs><clipPath clipPathUnits="userSpaceOnUse" id="cp1"><path d="m-41-385h1440v1369h-1440z"/></clipPath><clipPath clipPathUnits="userSpaceOnUse" id="cp2"><path d="m-41-297h300v1281h-300z"/></clipPath></defs><style>.a{fill:none;stroke:#444;stroke-linecap:round;stroke-width:1.2}.b{fill:#444}</style><g clip-path="url(#cp1)"><g clip-path="url(#cp2)"><path class="a" d="m1.1 13.3c0-0.3 0.2-0.5 0.6-1l1-1.1c0.2-0.2 0.4-0.8 0.4-1.2 0-0.5-0.2-1-0.4-1.3l-1-1c-0.4-0.5-0.6-0.7-0.6-1-0.1-0.3 0.1-0.6 0.4-1.2l0.5-0.8c0.3-0.5 0.5-0.8 0.8-1 0.3-0.1 0.6 0 1.3 0.2l1.1 0.3c0.4 0.1 0.8 0.1 1.2-0.1l0.3-0.2q0.5-0.3 0.8-0.9l0.3-0.9c0.2-0.6 0.3-0.9 0.5-1.1 0.2-0.2 0.6-0.2 1.2-0.2h1c0.6 0 1 0 1.2 0.2 0.2 0.2 0.3 0.5 0.5 1.1l0.4 0.9q0.2 0.6 0.7 0.9l0.3 0.2c0.4 0.2 0.8 0.2 1.2 0.1l1.1-0.3c0.7-0.2 1-0.3 1.3-0.2 0.3 0.2 0.5 0.5 0.8 1l0.5 0.8c0.3 0.6 0.5 0.9 0.4 1.2 0 0.3-0.2 0.5-0.6 1l-1 1c-0.2 0.3-0.4 0.8-0.4 1.3 0 0.4 0.2 1 0.4 1.2l1 1.1c0.4 0.5 0.6 0.7 0.6 1 0.1 0.3-0.1 0.6-0.4 1.1l-0.5 0.8c-0.3 0.6-0.5 0.9-0.8 1-0.3 0.2-0.6 0.1-1.3-0.1l-1.1-0.3c-0.4-0.1-0.8-0.1-1.2 0.1l-0.3 0.2q-0.5 0.3-0.7 0.9l-0.4 0.9c-0.2 0.6-0.3 0.9-0.5 1.1-0.2 0.1-0.6 0.1-1.2 0.1h-1c-0.6 0-1 0-1.2-0.1-0.2-0.2-0.3-0.5-0.5-1.1"/><path class="b" d="m9.6 13.8v0.6c0.9 0 1.7 0 2.3-0.1 0.7-0.1 1.3-0.3 1.7-0.7l-0.4-0.5-0.4-0.4c-0.2 0.2-0.6 0.4-1.1 0.4-0.5 0.1-1.2 0.1-2.1 0.1zm4.3-5h0.6c0-0.9-1-1.3-1.6-0.7l0.4 0.4 0.4 0.4c-0.1 0.2-0.4 0.1-0.4-0.1zm-0.6-0.3l-0.4-0.4-1.7 1.7 0.4 0.4 0.4 0.4 1.7-1.7zm-1.7 1.7l-0.4-0.4c-0.2 0.2-0.5 0.2-0.7 0l-0.5 0.4-0.4 0.4c0.7 0.7 1.8 0.7 2.4 0zm-1.5-1.5l-0.5-0.4c-0.6 0.6-0.6 1.7 0 2.4l0.5-0.5 0.4-0.4c-0.2-0.2-0.2-0.5 0-0.7zm-3.7 2h0.6c0-0.9 0.1-1.6 0.2-2.1 0-0.5 0.2-0.9 0.4-1.1l-0.4-0.4-0.5-0.4c-0.4 0.4-0.6 1-0.7 1.7-0.1 0.6-0.2 1.4-0.2 2.3zm5.1-4.3v0.6c-0.2 0-0.3-0.3-0.1-0.4l0.4 0.4 0.4 0.4c0.6-0.6 0.2-1.6-0.7-1.6zm0.3 0.6l-0.4-0.4-1.7 1.7 0.4 0.4 0.4 0.4 1.7-1.7zm-1.7 1.7l-0.4-0.4zm-8.4 10l0.4-0.4c-0.5-0.5-0.5-1.2 0-1.7l-0.4-0.4-0.5-0.4c-0.9 0.9-0.9 2.4 0 3.3zm2.5 0l-0.4-0.4c-0.4 0.5-1.2 0.5-1.6 0l-0.5 0.4-0.4 0.4c0.9 1 2.4 1 3.4 0zm-2.5-2.5l0.4 0.5 4.2-4.3-0.4-0.4-0.4-0.4-4.3 4.2zm4.8-5.5h-0.6c0 0.4 0 0.4 0 0.5l0.5 0.2 0.6 0.2c0.1-0.3 0.1-0.6 0.1-0.9zm3.3 3.2v-0.6c-0.3 0-0.7 0-1 0.2l0.3 0.5 0.2 0.6c0 0 0.1-0.1 0.5-0.1zm-1.3 0.6l-0.4-0.4-4.3 4.2 0.4 0.4 0.5 0.4 4.2-4.2zm0 0l0.4 0.4c0.3-0.3 0.4-0.3 0.4-0.3l-0.2-0.6-0.3-0.5c-0.3 0.1-0.5 0.3-0.7 0.6zm4.8-1.3l0.4 0.4q0.4-0.2 0.6-0.6 0.2-0.4 0.3-0.9c0-0.7 0-1.6 0-3.3h-0.6-0.6c0 1.7 0 2.6 0 3.1-0.1 0.3-0.1 0.4-0.2 0.5 0 0.1-0.1 0.2-0.3 0.4zm0 0l0.4 0.4zm0.7-4.4h-0.6zm-0.6-0.2l0.5 0.4zm-1.7 1.7l-0.5-0.4zm-4.5-3.2l0.5 0.5c0.1-0.2 0.2-0.3 0.4-0.4 0.1 0 0.2-0.1 0.5-0.1 0.5-0.1 1.3-0.1 3-0.1v-0.6-0.6c-1.6 0-2.6 0-3.2 0.1q-0.5 0.1-0.9 0.3-0.4 0.2-0.7 0.5zm0 0l0.4 0.4zm4.4-0.7v0.6zm0.3 0.6l0.4 0.5zm-1.7 3.2l0.4-0.4zm-8.4 5.9l0.4 0.4zm2.5 2.5l0.4 0.5zm4.3-4.3l0.4 0.4zm-2.5-2.5l0.4 0.5c0.3-0.3 0.5-0.5 0.6-0.8l-0.5-0.2-0.6-0.3c0 0.1 0 0.1-0.3 0.4zm0.4-0.5l0.6 0.2zm-0.5 0.5l0.5 0.5zm3.8 1.9v-0.6zm-0.8 0.1l0.3 0.6z"/></g></g></svg>